<?xml version="1.0" encoding="UTF-8"?>
<svg id="Layer_1" data-name="Layer 1" xmlns="http://www.w3.org/2000/svg" viewBox="0 0 32 32">
  <defs>
    <style>
      .cls-1 {
        fill: #7c7185;
      }
    </style>
  </defs>
  <path class="cls-1" d="M11.65,5.57c-1.12.05-1.88.23-2.55.49-.69.27-1.28.63-1.86,1.21-.58.58-.94,1.17-1.21,1.86-.26.67-.43,1.43-.48,2.55-.05,1.12-.06,1.48-.05,4.33,0,2.85.02,3.21.07,4.33.05,1.12.23,1.88.49,2.55.27.69.63,1.28,1.21,1.86.58.58,1.17.94,1.86,1.21.67.26,1.43.43,2.55.48,1.12.05,1.48.06,4.33.05,2.85,0,3.21-.02,4.33-.07,1.12-.05,1.88-.23,2.55-.49.69-.27,1.28-.63,1.86-1.21.58-.58.94-1.17,1.21-1.86.26-.67.43-1.43.48-2.55.05-1.12.06-1.48.06-4.33,0-2.85-.02-3.21-.07-4.33-.05-1.12-.23-1.88-.49-2.55-.27-.69-.63-1.27-1.21-1.86-.58-.58-1.17-.94-1.86-1.21-.67-.26-1.43-.43-2.55-.48-1.12-.05-1.48-.06-4.33-.06-2.85,0-3.21.02-4.33.07M11.77,24.55c-1.02-.04-1.58-.21-1.95-.36-.49-.19-.84-.42-1.21-.78-.37-.37-.6-.72-.79-1.21-.14-.37-.32-.93-.37-1.95-.05-1.11-.06-1.44-.07-4.24,0-2.8,0-3.13.05-4.24.04-1.02.22-1.58.36-1.95.19-.49.42-.84.78-1.21.37-.37.72-.6,1.21-.79.37-.14.93-.32,1.95-.37,1.11-.05,1.44-.06,4.24-.07,2.8,0,3.14,0,4.24.05,1.02.04,1.58.21,1.95.36.49.19.84.42,1.21.78.37.37.6.72.79,1.21.14.37.32.93.36,1.95.05,1.11.06,1.44.07,4.24,0,2.8,0,3.14-.05,4.24-.04,1.02-.21,1.58-.36,1.95-.19.49-.42.84-.78,1.21-.37.37-.72.6-1.21.79-.37.14-.93.32-1.95.37-1.11.05-1.44.06-4.24.07-2.8,0-3.13,0-4.24-.05M20.33,10.39c0,.7.57,1.26,1.26,1.26.7,0,1.26-.57,1.26-1.26,0-.7-.57-1.26-1.26-1.26s-1.26.57-1.26,1.26M10.61,16.01c0,2.98,2.42,5.39,5.4,5.38,2.98,0,5.39-2.42,5.38-5.4,0-2.98-2.42-5.39-5.4-5.38-2.98,0-5.39,2.42-5.38,5.4M12.5,16.01c0-1.93,1.56-3.5,3.49-3.51,1.93,0,3.5,1.56,3.51,3.49,0,1.93-1.56,3.5-3.49,3.51-1.93,0-3.5-1.56-3.51-3.49"/>
</svg>