<svg xmlns="http://www.w3.org/2000/svg" xmlns:xlink="http://www.w3.org/1999/xlink" width="350" height="66.35" viewBox="0 0 350 66.35">
  <defs>
    <clipPath id="clip-path">
      <rect id="Rectangle_8" data-name="Rectangle 8" width="350" height="66.35" fill="#fff"/>
    </clipPath>
  </defs>
  <g id="Group_103" data-name="Group 103" transform="translate(0 0)">
    <g id="Group_1" data-name="Group 1" transform="translate(0 0)" clip-path="url(#clip-path)">
      <path id="Path_1" data-name="Path 1" d="M179.139,14.479a3.776,3.776,0,0,1,2.82,1.234,4.144,4.144,0,0,1,1.17,2.982,4.163,4.163,0,0,1-1.17,3,3.768,3.768,0,0,1-2.82,1.217,3.28,3.28,0,0,1-2.8-1.346V25.9H174.6V14.687h1.732v1.155a3.237,3.237,0,0,1,2.8-1.363m-2.083,6.058a2.637,2.637,0,0,0,3.624,0,2.529,2.529,0,0,0,.721-1.842,2.475,2.475,0,0,0-.721-1.827,2.593,2.593,0,0,0-3.624,0,2.475,2.475,0,0,0-.721,1.827,2.564,2.564,0,0,0,.721,1.842" transform="translate(118.864 9.857)" fill="#fff"/>
      <path id="Path_2" data-name="Path 2" d="M184.824,15.693a2.928,2.928,0,0,1,2.235.889,3.361,3.361,0,0,1,.841,2.412v4.92h-1.73V19.17a1.866,1.866,0,0,0-.481-1.378,1.776,1.776,0,0,0-1.315-.481,1.934,1.934,0,0,0-1.489.585,2.438,2.438,0,0,0-.545,1.723v4.294h-1.73V12.7h1.73v4.23a2.751,2.751,0,0,1,2.483-1.234" transform="translate(122.952 8.643)" fill="#fff"/>
      <path id="Path_3" data-name="Path 3" d="M192.584,15.825V14.687h1.729V22.7h-1.729V21.547a3.246,3.246,0,0,1-2.805,1.362,3.778,3.778,0,0,1-2.822-1.217,4.163,4.163,0,0,1-1.17-3,4.16,4.16,0,0,1,1.17-3,3.779,3.779,0,0,1,2.822-1.218,3.258,3.258,0,0,1,2.805,1.346m-4.343,4.711a2.635,2.635,0,0,0,3.622,0,2.529,2.529,0,0,0,.721-1.842,2.475,2.475,0,0,0-.721-1.827,2.592,2.592,0,0,0-3.622,0,2.475,2.475,0,0,0-.721,1.827,2.564,2.564,0,0,0,.721,1.842" transform="translate(126.477 9.857)" fill="#fff"/>
      <path id="Path_4" data-name="Path 4" d="M193.793,14.662v1.346a2.451,2.451,0,0,1,2.467-1.491v1.876a2.582,2.582,0,0,0-1.733.481,2.023,2.023,0,0,0-.734,1.761v4.039H192.06V14.662Z" transform="translate(130.748 9.883)" fill="#fff"/>
      <path id="Path_5" data-name="Path 5" d="M204.069,14.479a2.884,2.884,0,0,1,2.195.881,3.313,3.313,0,0,1,.833,2.372V22.7h-1.73V17.844a1.855,1.855,0,0,0-.417-1.282,1.452,1.452,0,0,0-1.138-.464,1.6,1.6,0,0,0-1.282.536,2.35,2.35,0,0,0-.465,1.578V22.7h-1.73V17.844a1.919,1.919,0,0,0-.393-1.289,1.384,1.384,0,0,0-1.114-.457,1.646,1.646,0,0,0-1.29.544,2.277,2.277,0,0,0-.489,1.57V22.7h-1.73V14.687h1.73v.961a2.562,2.562,0,0,1,2.291-1.17,2.453,2.453,0,0,1,2.275,1.266,2.677,2.677,0,0,1,2.451-1.266" transform="translate(132.968 9.857)" fill="#fff"/>
      <path id="Path_6" data-name="Path 6" d="M209.963,15.825V14.687h1.728V22.7h-1.728V21.547a3.25,3.25,0,0,1-2.806,1.362,3.768,3.768,0,0,1-2.82-1.217,4.163,4.163,0,0,1-1.17-3,4.16,4.16,0,0,1,1.17-3,3.769,3.769,0,0,1,2.82-1.218,3.262,3.262,0,0,1,2.806,1.346m-4.345,4.711a2.637,2.637,0,0,0,3.624,0,2.529,2.529,0,0,0,.721-1.842,2.475,2.475,0,0,0-.721-1.827,2.593,2.593,0,0,0-3.624,0,2.475,2.475,0,0,0-.721,1.827,2.564,2.564,0,0,0,.721,1.842" transform="translate(138.308 9.857)" fill="#fff"/>
      <path id="Path_7" data-name="Path 7" d="M178.567,32.717a4.135,4.135,0,0,1-4.23-4.214,4.06,4.06,0,0,1,1.2-3,4.353,4.353,0,0,1,5.159-.657,3.617,3.617,0,0,1,1.442,1.506l-1.49.866a2.049,2.049,0,0,0-.825-.906,2.45,2.45,0,0,0-1.275-.328,2.416,2.416,0,0,0-1.777.721,2.636,2.636,0,0,0,0,3.589,2.416,2.416,0,0,0,1.777.721,2.5,2.5,0,0,0,1.275-.328,2.113,2.113,0,0,0,.857-.906l1.49.849a3.785,3.785,0,0,1-1.482,1.523,4.159,4.159,0,0,1-2.123.561" transform="translate(118.683 16.534)" fill="#fff"/>
      <path id="Path_8" data-name="Path 8" d="M183.629,32.716a4.184,4.184,0,1,1,3-1.217,4.074,4.074,0,0,1-3,1.217m-2.5-4.214a2.455,2.455,0,0,0,.721,1.81,2.554,2.554,0,0,0,3.557,0,2.626,2.626,0,0,0,0-3.621,2.554,2.554,0,0,0-3.557,0,2.456,2.456,0,0,0-.721,1.81" transform="translate(122.128 16.535)" fill="#fff"/>
      <path id="Path_9" data-name="Path 9" d="M187.1,24.471v1.346a2.451,2.451,0,0,1,2.467-1.491V26.2a2.572,2.572,0,0,0-1.733.481,2.016,2.016,0,0,0-.734,1.762v4.039h-1.733V24.471Z" transform="translate(126.192 16.56)" fill="#fff"/>
      <path id="Path_10" data-name="Path 10" d="M193.164,24.288a3.781,3.781,0,0,1,2.82,1.234,4.4,4.4,0,0,1,0,5.978,3.768,3.768,0,0,1-2.82,1.217,3.28,3.28,0,0,1-2.8-1.346v4.343h-1.732V24.5h1.732v1.155a3.238,3.238,0,0,1,2.8-1.363m-2.083,6.058a2.634,2.634,0,0,0,3.621,0,2.529,2.529,0,0,0,.721-1.842,2.476,2.476,0,0,0-.721-1.827,2.591,2.591,0,0,0-3.621,0,2.476,2.476,0,0,0-.721,1.827,2.565,2.565,0,0,0,.721,1.842" transform="translate(128.41 16.534)" fill="#fff"/>
      <path id="Path_11" data-name="Path 11" d="M13.248,2.619,7.933,7.934,2.619,13.248,13.248,23.876,23.877,13.248Z" transform="translate(1.783 1.783)" fill="#fff"/>
      <rect id="Rectangle_1" data-name="Rectangle 1" width="15.031" height="15.031" transform="translate(40.69 51.319) rotate(-45)" fill="#fff"/>
      <rect id="Rectangle_2" data-name="Rectangle 2" width="15.031" height="15.031" transform="translate(40.69 15.031) rotate(-45)" fill="#fff"/>
      <rect id="Rectangle_3" data-name="Rectangle 3" width="15.031" height="15.031" transform="translate(25.66)" fill="#fff"/>
      <rect id="Rectangle_4" data-name="Rectangle 4" width="15.031" height="15.031" transform="translate(51.319 25.659)" fill="#fff"/>
      <rect id="Rectangle_5" data-name="Rectangle 5" width="15.031" height="15.031" transform="translate(4.402 51.319) rotate(-45)" fill="#fff"/>
      <rect id="Rectangle_6" data-name="Rectangle 6" width="15.031" height="15.031" transform="translate(0 25.659)" fill="#fff"/>
      <rect id="Rectangle_7" data-name="Rectangle 7" width="15.031" height="15.031" transform="translate(25.658 51.319)" fill="#fff"/>
      <path id="Path_12" data-name="Path 12" d="M105.953,25.294V42.757H98.445V25.294a10.22,10.22,0,0,0-2.071-6.814,6.921,6.921,0,0,0-5.558-2.432,7,7,0,0,0-5.582,2.432,10.1,10.1,0,0,0-2.1,6.814V42.757H75.62V25.294A10.2,10.2,0,0,0,73.55,18.48a7.6,7.6,0,0,0-11.142,0,10.114,10.114,0,0,0-2.1,6.814V42.757H52.794V25.294a19.193,19.193,0,0,1,1.925-8.854,12.349,12.349,0,0,1,5.135-5.41A16.294,16.294,0,0,1,67.874,8.8a14.15,14.15,0,0,1,7.747,2.133,11.525,11.525,0,0,1,3.755,3.824,11.581,11.581,0,0,1,3.756-3.824A14.154,14.154,0,0,1,90.877,8.8a15.616,15.616,0,0,1,7.869,1.95,13.221,13.221,0,0,1,5.319,5.686,19.43,19.43,0,0,1,1.888,8.854" transform="translate(35.94 5.994)" fill="#fff"/>
      <path id="Path_13" data-name="Path 13" d="M113.93,9.448V13.3a14.186,14.186,0,0,0-2.622-2.108,14.865,14.865,0,0,0-8.071-2.2,16.017,16.017,0,0,0-8.425,2.254,15.8,15.8,0,0,0-5.846,6.177,17.991,17.991,0,0,0-2.108,8.659,17.991,17.991,0,0,0,2.108,8.664,15.829,15.829,0,0,0,14.211,8.426,14.984,14.984,0,0,0,8.131-2.193,14.183,14.183,0,0,0,2.622-2.1v3.75h7.475V9.448Zm-1.593,21.734a9.537,9.537,0,0,1-3.468,3.657,9.306,9.306,0,0,1-4.927,1.331,9.487,9.487,0,0,1-4.927-1.331,9.282,9.282,0,0,1-3.529-3.657,10.657,10.657,0,0,1-1.274-5.227,10.68,10.68,0,0,1,1.274-5.227,9.382,9.382,0,0,1,3.529-3.657,9.55,9.55,0,0,1,4.927-1.329,9.365,9.365,0,0,1,4.927,1.329,9.644,9.644,0,0,1,3.468,3.657,10.687,10.687,0,0,1,1.274,5.227,10.664,10.664,0,0,1-1.274,5.227" transform="translate(59.129 6.123)" fill="#fff"/>
      <path id="Path_14" data-name="Path 14" d="M131.814,10.658a8.916,8.916,0,0,0-3.835,4.229,16.52,16.52,0,0,0-1.415,5.721V42.87l7.742.19v-21.9a5.354,5.354,0,0,1,1.247-3.955,3.471,3.471,0,0,1,2.939-1.217h6.131V9.167h-6.8a10.9,10.9,0,0,0-6.009,1.491" transform="translate(86.16 6.241)" fill="#fff"/>
      <path id="Path_15" data-name="Path 15" d="M140.029,2.4H147.7V9.736h-7.668Zm.061,11.533h7.546V47.281H140.09Z" transform="translate(95.327 1.636)" fill="#fff"/>
      <path id="Path_16" data-name="Path 16" d="M159.171,25.63,147.7,9.2h8.913l8.063,11.683,8-11.683h8.913l-11.47,16.43,11.863,16.915h-8.913L164.677,30.5,156.09,42.545h-8.717Z" transform="translate(100.326 6.263)" fill="#fff"/>
      <path id="Path_17" data-name="Path 17" d="M132.685,20.342v-6.4h-8.238V2.4l-7.573,3.891V13.94h-7.027v6.4H116.9V35.154a16.344,16.344,0,0,0,1.218,6.79,8.92,8.92,0,0,0,3.833,4.229,13.251,13.251,0,0,0,6.632,1.491h3.682V40.119h-3.012A4.883,4.883,0,0,1,125.7,38.9a5.348,5.348,0,0,1-1.248-3.955V20.342Z" transform="translate(74.779 1.636)" fill="#fff"/>
    </g>
  </g>
</svg>
