<svg id="Group_467" data-name="Group 467" xmlns="http://www.w3.org/2000/svg" xmlns:xlink="http://www.w3.org/1999/xlink" width="285.424" height="422.732" viewBox="0 0 285.424 422.732">
  <defs>
    <clipPath id="clip-path">
      <rect id="Rectangle_1268" data-name="Rectangle 1268" width="285.424" height="422.732" fill="none"/>
    </clipPath>
  </defs>
  <g id="Group_405" data-name="Group 405" clip-path="url(#clip-path)">
    <path id="Path_166" data-name="Path 166" d="M217.245,205.906v7.906a16.581,16.581,0,0,1-16.581,16.581" transform="translate(-12.768 -13.101)" fill="none" stroke="#000" stroke-width="1"/>
    <path id="Path_167" data-name="Path 167" d="M107.679,205.906v6.965A32.16,32.16,0,0,0,139.8,244.995h7.124" transform="translate(-6.851 -13.101)" fill="none" stroke="#000" stroke-width="1"/>
    <path id="Path_168" data-name="Path 168" d="M143.5,230.393h-2.7a17.522,17.522,0,0,1-17.521-17.522v-6.965" transform="translate(-7.844 -13.101)" fill="none" stroke="#000" stroke-width="1"/>
    <path id="Path_169" data-name="Path 169" d="M144.55,435.834V260.9a29.236,29.236,0,0,1,29.2-29.2h3.08a5.848,5.848,0,0,0,5.84-5.841v-19.95" transform="translate(-9.197 -13.101)" fill="none" stroke="#000" stroke-width="1"/>
    <path id="Path_170" data-name="Path 170" d="M159.949,435.834v-172.2a17.522,17.522,0,0,1,17.522-17.522h3.08A17.522,17.522,0,0,0,198.073,228.6V205.906" transform="translate(-10.177 -13.101)" fill="none" stroke="#000" stroke-width="1"/>
    <line id="Line_44" data-name="Line 44" y2="6.424" transform="translate(135.405 252.711)" fill="none" stroke="#000" stroke-width="0.809"/>
    <line id="Line_45" data-name="Line 45" y2="24.487" transform="translate(135.405 192.804)" fill="none" stroke="#000" stroke-width="0.809"/>
    <path id="Path_171" data-name="Path 171" d="M160.006,235.384V205.906" transform="translate(-10.181 -13.101)" fill="none" stroke="#000" stroke-width="1"/>
    <path id="Path_172" data-name="Path 172" d="M108.777,224.312H105.5a16.228,16.228,0,0,1-16.228-16.228v-2.178" transform="translate(-5.68 -13.101)" fill="none" stroke="#000" stroke-width="1"/>
    <rect id="Rectangle_1217" data-name="Rectangle 1217" width="11.782" height="11.782" transform="translate(80.954 41.508)" fill="#c6bcf2"/>
    <rect id="Rectangle_1218" data-name="Rectangle 1218" width="9.426" height="9.426" transform="translate(39.193 35.743)" fill="#c7bdf2"/>
    <rect id="Rectangle_1219" data-name="Rectangle 1219" width="9.957" height="9.957" transform="translate(2.54 75.926)" fill="#efa538"/>
    <rect id="Rectangle_1220" data-name="Rectangle 1220" width="9.61" height="9.611" transform="translate(66.808 31.335)" fill="#cbc2f3"/>
    <rect id="Rectangle_1221" data-name="Rectangle 1221" width="9.885" height="9.885" transform="translate(81.903 20.213)" fill="#cec5f3"/>
    <rect id="Rectangle_1222" data-name="Rectangle 1222" width="13.084" height="13.085" transform="translate(17.906 95.283)" fill="#f1af4f"/>
    <rect id="Rectangle_1223" data-name="Rectangle 1223" width="19.721" height="19.721" transform="translate(75.849 59.554)" fill="#efa53a"/>
    <rect id="Rectangle_1224" data-name="Rectangle 1224" width="18.125" height="18.125" transform="translate(18.55 118.455)" fill="#efa336"/>
    <rect id="Rectangle_1225" data-name="Rectangle 1225" width="11.685" height="11.686" transform="translate(0 116.506)" fill="#cfc7f4"/>
    <rect id="Rectangle_1226" data-name="Rectangle 1226" width="11.686" height="11.686" transform="translate(12.847 144.623)" fill="#c9bff2"/>
    <rect id="Rectangle_1227" data-name="Rectangle 1227" width="13.649" height="13.65" transform="translate(250.776 93.227)" fill="#efa336"/>
    <rect id="Rectangle_1228" data-name="Rectangle 1228" width="18.205" height="18.205" transform="translate(217.66 160.795)" fill="#f7a69e"/>
    <rect id="Rectangle_1229" data-name="Rectangle 1229" width="18.274" height="18.275" transform="translate(217.47 115.067)" fill="#f1ae4d"/>
    <rect id="Rectangle_1230" data-name="Rectangle 1230" width="12.435" height="12.435" transform="translate(256.703 58.294)" fill="#f0ab48"/>
    <rect id="Rectangle_1231" data-name="Rectangle 1231" width="11.553" height="11.553" transform="translate(268.891 144.688)" fill="#cdc4f3"/>
    <rect id="Rectangle_1232" data-name="Rectangle 1232" width="20.484" height="20.484" transform="translate(237.616 135.566)" fill="#efa336"/>
    <rect id="Rectangle_1233" data-name="Rectangle 1233" width="21.611" height="21.611" transform="translate(184.583 104.664)" fill="#f1ae4d"/>
    <rect id="Rectangle_1234" data-name="Rectangle 1234" width="27.75" height="27.751" transform="translate(212.263 74.319)" fill="#f0a943"/>
    <rect id="Rectangle_1235" data-name="Rectangle 1235" width="25.765" height="25.766" transform="translate(45.709 136.438)" fill="#cec6f4"/>
    <rect id="Rectangle_1236" data-name="Rectangle 1236" width="21.116" height="21.116" transform="translate(106.377 164.948)" fill="#f04f3f"/>
    <rect id="Rectangle_1237" data-name="Rectangle 1237" width="25.702" height="25.702" transform="translate(126.206 106.526)" fill="#fac2bc"/>
    <rect id="Rectangle_1238" data-name="Rectangle 1238" width="12.371" height="12.371" transform="translate(105.762 113.331)" fill="#f2695c"/>
    <rect id="Rectangle_1239" data-name="Rectangle 1239" width="23.971" height="23.971" transform="translate(100.934 132.295)" fill="#f6958c"/>
    <rect id="Rectangle_1240" data-name="Rectangle 1240" width="21.24" height="21.24" transform="translate(158.256 165.584)" fill="#f37669"/>
    <path id="Path_173" data-name="Path 173" d="M131.8,87.565H107.054v24.67h.245v.075h24.5Z" transform="translate(-6.812 -5.572)" fill="#f88c55"/>
    <rect id="Rectangle_1241" data-name="Rectangle 1241" width="23.573" height="23.573" transform="translate(190.99 135.01)" fill="#f7a29a"/>
    <rect id="Rectangle_1242" data-name="Rectangle 1242" width="18.439" height="18.44" transform="translate(71.779 160.772)" fill="#f69c93"/>
    <rect id="Rectangle_1243" data-name="Rectangle 1243" width="16.922" height="16.922" transform="translate(132.626 148.17)" fill="#f48074"/>
    <rect id="Rectangle_1244" data-name="Rectangle 1244" width="12.372" height="12.371" transform="translate(80.704 135.559)" fill="#f99867"/>
    <rect id="Rectangle_1245" data-name="Rectangle 1245" width="15.201" height="15.201" transform="translate(186.3 82.864)" fill="#f8aaa3"/>
    <rect id="Rectangle_1246" data-name="Rectangle 1246" width="11.781" height="11.782" transform="translate(273.642 77.718)" fill="#cdc4f3"/>
    <rect id="Rectangle_1247" data-name="Rectangle 1247" width="15.811" height="15.811" transform="translate(158.577 107.523)" fill="#f6958c"/>
    <rect id="Rectangle_1248" data-name="Rectangle 1248" width="15.856" height="15.856" transform="translate(158.532 57.551)" fill="#f5877d"/>
    <rect id="Rectangle_1249" data-name="Rectangle 1249" width="24.882" height="24.882" transform="translate(156.48 129.35)" fill="#f2695c"/>
    <path id="Path_174" data-name="Path 174" d="M105.381,113.911H80.752v24.873h24.874v-24.8h-.245Z" transform="translate(-5.138 -7.248)" fill="#efa336"/>
    <rect id="Rectangle_1250" data-name="Rectangle 1250" width="0.245" height="0.076" transform="translate(100.242 106.663)" fill="#ee9623"/>
    <rect id="Rectangle_1251" data-name="Rectangle 1251" width="24.134" height="24.134" transform="translate(157.227 78.398)" fill="#f8a8a1"/>
    <rect id="Rectangle_1252" data-name="Rectangle 1252" width="25.136" height="25.136" transform="translate(152.269 28.379)" fill="#f99665"/>
    <rect id="Rectangle_1253" data-name="Rectangle 1253" width="12.489" height="12.49" transform="translate(105.703 66.032)" fill="#f88c55"/>
    <rect id="Rectangle_1254" data-name="Rectangle 1254" width="17.781" height="17.782" transform="translate(126.572 14.522)" fill="#f8905b"/>
    <rect id="Rectangle_1255" data-name="Rectangle 1255" width="10.885" height="10.885" transform="translate(168.945 1.307)" fill="#f1b051"/>
    <rect id="Rectangle_1256" data-name="Rectangle 1256" width="22.244" height="22.244" transform="translate(127.765 58.293)" fill="#c7bef2"/>
    <rect id="Rectangle_1257" data-name="Rectangle 1257" width="11.782" height="11.782" transform="translate(106.056 2.006)" fill="#f88a53"/>
    <rect id="Rectangle_1258" data-name="Rectangle 1258" width="12.435" height="12.435" transform="translate(12.472 39.949)" fill="#f1af4f"/>
    <rect id="Rectangle_1259" data-name="Rectangle 1259" width="25.015" height="25.015" transform="translate(46.08 80.904)" fill="#f0ab46"/>
    <rect id="Rectangle_1260" data-name="Rectangle 1260" width="15.329" height="15.33" transform="translate(46.049 60.401)" fill="#f88d57"/>
    <rect id="Rectangle_1261" data-name="Rectangle 1261" width="18.053" height="18.053" transform="translate(104.131 31.918)" fill="#f1af4f"/>
    <rect id="Rectangle_1262" data-name="Rectangle 1262" width="24.418" height="24.418" transform="translate(181.361 54.37)" fill="#f0a73f"/>
    <rect id="Rectangle_1263" data-name="Rectangle 1263" width="10.419" height="10.419" transform="translate(262.496 122.276)" fill="#efa53a"/>
    <rect id="Rectangle_1264" data-name="Rectangle 1264" width="13.649" height="13.649" transform="translate(205.801)" fill="#efa336"/>
    <rect id="Rectangle_1265" data-name="Rectangle 1265" width="11.554" height="11.553" transform="translate(226.743 17.261)" fill="#cec6f4"/>
    <rect id="Rectangle_1266" data-name="Rectangle 1266" width="20.484" height="20.483" transform="translate(192.142 22.424)" fill="#efa53a"/>
    <rect id="Rectangle_1267" data-name="Rectangle 1267" width="10.419" height="10.419" transform="translate(222.101 44.214)" fill="#efa538"/>
  </g>
</svg>
